<?xml version="1.0" encoding="utf-8"?>
<!-- Generator: Adobe Illustrator 25.0.0, SVG Export Plug-In . SVG Version: 6.00 Build 0)  -->
<svg version="1.1" xmlns="http://www.w3.org/2000/svg" xmlns:xlink="http://www.w3.org/1999/xlink" x="0px" y="0px"
	 viewBox="0 0 1366 768" style="enable-background:new 0 0 1366 768;" xml:space="preserve">
<style type="text/css">
	.st0{fill:#B800E9;}
	.st1{fill:#FFFFFF;}
</style>
<g id="Layer_1">
	<path class="st0" d="M448.5,375.5c-2-7-19-6-19-6c-3,0-1.91-9-1.91-9c-0.91,2-6.49,0-6.49,0c0.6,1-1.6,5-1.6,5c-1,0-2.5-5-2.5-5
		c-0.5,1-5.5,0-5.5,0c2,4-0.39,14-0.39,14c-3.39-2-7.61,8-7.61,8c-2,0,0.02-8,0.02-8c0.02,2-15.02,0-15.02,0c4,25-4,33-5,35
		s-10.62-0.8-10.62-0.8c2.38,4.2-3.38,15.8-3.38,15.8h7c-5,6,6,31,9,34s-6,20-6,20c6,6,14,2,14,2l2-12c23,28,68,22,68,22
		c9-35,2-61-14-79c0,0,6-1,7,0s-5-6-1-7c0,0-8-1-8-6c0,0-21,8-19,1c0,0-7-2-1-9c0,0,11-5,13-2c0,0-1-10,2-9L448.5,375.5z"/>
</g>
<g id="Layer_2">
	<path class="st1" d="M423.69,462.85c6.19,0.35-14.19-43.35,0,10.8c14.19,54.15,13.81-81.15,13.81-81.15s26,96-13.81,98.83
		S397.5,392.5,397.5,392.5c-33,96,40,118,40,118c42-71,6-119,6-119c27,30,24,97,24,97c26-23-3-85-3-85c-20-32-7-123-7-123
		s-23,72,4,130s-8,94-8,94s76-50,8-108s-60-120-60-120c4,9,37-92,37-92c-29,100-33,95-33,95s-18,22,60,112s7-18,7-18
		c-121-161-83-214-83-214c-15,60,54,173,86,209c7.62,8.57,32,99,32,99s-116,134-124,0s21-116,21-116
		c95-119,19.19-219.58,19.19-219.58c43.02,82.02,17.64,163.23-9.04,198.8c-6.31,8.41-12.68,14.27-18.25,16.98
		c-29.1,14.2-16.9,122.8-16.9,122.8s-26-24-12-7s-18,10-13,2s18-76,12-111s-30-33-30-33c49,13,17,125,17,125c-31,0,3-117,29-138
		S362.24,224,362.24,224c23.74,44.5,5.26,84.5,5.26,84.5c-90,164,11,182,11,182c-95-27-53-208-53-208
		c-71,215,99.91,255.61,99.91,255.61S516.79,533.5,539.14,382l-27.64,39.5c0,0,13.68-164-41.66-197.5c0,0,44.66,53.5,29.66,135.5
		c0,0-2.18-63-74.09-135.5c0,0,76.64,111.86,56.87,111.68"/>
</g>
</svg>
