<?xml version="1.0" encoding="utf-8"?>
<!-- Generator: Adobe Illustrator 25.0.0, SVG Export Plug-In . SVG Version: 6.00 Build 0)  -->
<svg version="1.1" xmlns="http://www.w3.org/2000/svg" xmlns:xlink="http://www.w3.org/1999/xlink" x="0px" y="0px"
	 viewBox="0 0 1366 768" style="enable-background:new 0 0 1366 768;" xml:space="preserve">
<style type="text/css">
	.st0{fill:#B800E9;}
	.st1{fill:#FFFFFF;}
</style>
<g id="Layer_1">
	<path class="st0" d="M720.86,459.28c-4.61-12.96-43.84-11.11-43.84-11.11c-6.92,0-4.4-16.66-4.4-16.66c-2.09,3.7-14.98,0-14.98,0
		c1.39,1.85-3.7,9.26-3.7,9.26c-2.31,0-5.77-9.26-5.77-9.26c-1.15,1.85-12.69,0-12.69,0c4.61,7.41-0.89,25.92-0.89,25.92
		c-7.81-3.7-17.56,14.81-17.56,14.81c-4.61,0,0.04-14.81,0.04-14.81c0.04,3.7-34.65,0-34.65,0c9.23,46.29-9.23,61.1-11.54,64.8
		c-2.31,3.7-24.5-1.48-24.5-1.48c5.49,7.77-7.8,29.26-7.8,29.26h16.15c-11.54,11.11,13.84,57.4,20.77,62.95
		c6.92,5.55-13.84,37.03-13.84,37.03c13.84,11.11,32.3,3.7,32.3,3.7l4.61-22.22c53.07,51.84,156.89,40.73,156.89,40.73
		c20.77-64.8,4.61-112.94-32.3-146.27c0,0,13.84-1.85,16.15,0c2.31,1.85-11.54-11.11-2.31-12.96c0,0-18.46-1.85-18.46-11.11
		c0,0-48.45,14.81-43.84,1.85c0,0-16.15-3.7-2.31-16.66c0,0,25.38-9.26,29.99-3.7c0,0-2.31-18.52,4.61-16.66L720.86,459.28z"/>
</g>
<g id="Layer_2">
	<path class="st1" d="M663.62,621.01c14.28,0.65-32.74-80.26,0,20c32.74,100.26,31.87-150.25,31.87-150.25
		s59.99,177.75-31.87,182.98s-60.42-182.98-60.42-182.98c-76.14,177.75,92.29,218.48,92.29,218.48
		c96.9-131.46,13.84-220.33,13.84-220.33c62.3,55.55,55.37,179.6,55.37,179.6c59.99-42.59-6.92-157.38-6.92-157.38
		c-46.15-59.25-16.15-227.74-16.15-227.74s-53.07,133.31,9.23,240.7S732.4,698.12,732.4,698.12s175.35-92.58,18.46-199.97
		S612.42,275.97,612.42,275.97c9.23,16.66,85.37-170.34,85.37-170.34c-66.91,185.15-76.14,175.9-76.14,175.9
		s-41.53,40.73,138.44,207.37s16.15-33.33,16.15-33.33c-279.18-298.1-191.5-396.23-191.5-396.23
		c-34.61,111.09,124.59,320.31,198.42,386.97c17.58,15.87,73.83,183.3,73.83,183.3s-267.64,248.1-286.1,0
		c-18.46-248.1,48.45-214.78,48.45-214.78C838.53,194.51,663.62,8.27,663.62,8.27c99.25,151.87,40.69,302.23-20.85,368.08
		c-14.55,15.57-29.27,26.42-42.1,31.44c-67.14,26.29-39,227.37-39,227.37s-59.99-44.44-27.69-12.96
		c32.3,31.48-41.53,18.52-29.99,3.7c11.54-14.81,41.53-140.72,27.69-205.52c-13.84-64.8-69.22-61.1-69.22-61.1
		c113.06,24.07,39.22,231.44,39.22,231.44c-71.52,0,6.92-216.63,66.91-255.51c59.99-38.88-46.74-156.45-46.74-156.45
		c54.78,82.39,12.13,156.45,12.13,156.45C326.32,638.87,559.36,672.2,559.36,672.2c-219.19-49.99-122.28-385.12-122.28-385.12
		C273.26,685.16,667.59,760.36,667.59,760.36S878.42,751.82,930,471.31l-63.78,73.14c0,0,31.57-303.65-96.12-365.68
		c0,0,103.04,99.06,68.43,250.88c0,0-5.02-116.65-170.94-250.88c0,0,176.83,207.12,131.2,206.78"/>
</g>
</svg>
