<?xml version="1.0" encoding="utf-8"?>
<!-- Generator: Adobe Illustrator 25.0.0, SVG Export Plug-In . SVG Version: 6.00 Build 0)  -->
<svg version="1.1" id="Layer_1" xmlns="http://www.w3.org/2000/svg" xmlns:xlink="http://www.w3.org/1999/xlink" x="0px" y="0px"
	 viewBox="0 0 1366 768" style="enable-background:new 0 0 1366 768;" xml:space="preserve">
<style type="text/css">
	.st0{fill:#FFFFFF;}
</style>
<g id="Layer_1_1_">
	<path d="M736.3,460c-4.3-13.1-40.8-11.3-40.8-11.3c-6.4,0-4.1-16.9-4.1-16.9c-2,3.8-13.9,0-13.9,0c1.3,1.9-3.4,9.4-3.4,9.4
		c-2.1,0-5.4-9.4-5.4-9.4c-1.1,1.9-11.8,0-11.8,0c4.3,7.5-0.8,26.3-0.8,26.3c-7.3-3.8-16.3,15-16.3,15c-4.3,0,0-15,0-15
		c0,3.8-32.3,0-32.3,0c8.6,47-8.6,62-10.7,65.7c-2.1,3.8-22.8-1.5-22.8-1.5c5.1,7.9-7.3,29.7-7.3,29.7h15
		c-10.7,11.3,12.9,58.2,19.3,63.9c6.4,5.6-12.9,37.6-12.9,37.6c12.9,11.3,30.1,3.8,30.1,3.8l4.3-22.5
		c49.4,52.6,146.1,41.3,146.1,41.3c19.3-65.7,4.3-114.6-30.1-148.4c0,0,12.9-1.9,15,0c2.1,1.9-10.7-11.3-2.1-13.1
		c0,0-17.2-1.9-17.2-11.3c0,0-45.1,15-40.8,1.9c0,0-15-3.8-2.1-16.9c0,0,23.6-9.4,27.9-3.8c0,0-2.1-18.8,4.3-16.9L736.3,460z"/>
</g>
<g id="Layer_2_1_">
	<path class="st0" d="M683,624.1c13.3,0.7-30.5-81.4,0,20.3S712.7,492,712.7,492s55.8,180.3-29.7,185.6
		c-85.5,5.3-56.3-185.6-56.3-185.6c-70.9,180.3,85.9,221.7,85.9,221.7c90.2-133.4,12.9-223.5,12.9-223.5
		c58,56.4,51.6,182.2,51.6,182.2c55.8-43.2-6.4-159.7-6.4-159.7c-43-60.1-15-231-15-231s-49.4,135.2,8.6,244.2
		c58,108.9-17.2,176.6-17.2,176.6s163.3-93.9,17.2-202.9S635.3,274.1,635.3,274.1c8.6,16.9,79.5-172.8,79.5-172.8
		c-62.3,187.8-70.9,178.5-70.9,178.5S605.3,321,772.8,490.1s15-33.8,15-33.8c-259.9-302.4-178.3-402-178.3-402
		c-32.2,112.7,116,325,184.7,392.6c16.4,16.1,68.7,186,68.7,186s-249.2,251.7-266.4,0C579.5,381.2,641.8,415,641.8,415
		C845.9,191.4,683,2.5,683,2.5c92.4,154.1,37.9,306.6-19.4,373.4c-13.6,15.8-27.2,26.8-39.2,31.9c-62.5,26.7-36.3,230.7-36.3,230.7
		s-55.8-45.1-25.8-13.1c30.1,31.9-38.7,18.8-27.9,3.8c10.7-15,38.7-142.8,25.8-208.5s-64.4-62-64.4-62
		C601,383,532.2,593.4,532.2,593.4c-66.6,0,6.4-219.8,62.3-259.2S551,175.5,551,175.5c51,83.6,11.3,158.7,11.3,158.7
		C369,642.3,585.9,676.1,585.9,676.1c-204.1-50.7-113.8-390.7-113.8-390.7C319.6,689.2,686.7,765.5,686.7,765.5S883,756.8,931,472.3
		l-59.4,74.2c0,0,29.4-308.1-89.5-371c0,0,95.9,100.5,63.7,254.5c0,0-4.7-118.3-159.1-254.5c0,0,164.6,210.1,122.2,209.8"/>
</g>
</svg>
