<?xml version="1.0" encoding="utf-8"?>
<!-- Generator: Adobe Illustrator 25.0.0, SVG Export Plug-In . SVG Version: 6.00 Build 0)  -->
<svg version="1.1" id="Layer_1" xmlns="http://www.w3.org/2000/svg" xmlns:xlink="http://www.w3.org/1999/xlink" x="0px" y="0px"
	 viewBox="0 0 1366 768" style="enable-background:new 0 0 1366 768;" xml:space="preserve">
<style type="text/css">
	.st0{fill:url(#SVGID_1_);}
	.st1{fill:#B104FC;}
	.st2{fill:#FFFFFF;}
</style>
<g id="background">
	
		<linearGradient id="SVGID_1_" gradientUnits="userSpaceOnUse" x1="0.5" y1="384" x2="1365.4901" y2="384" gradientTransform="matrix(1 0 0 -1 0 768)">
		<stop  offset="0" style="stop-color:#FF7BAC;stop-opacity:0"/>
		<stop  offset="1" style="stop-color:#6600FF"/>
		<stop  offset="1" style="stop-color:#FF7BAC;stop-opacity:0.957"/>
		<stop  offset="1" style="stop-color:#FF7BAC"/>
	</linearGradient>
	<path class="st0" d="M0.5,0.5h682.02c0.23,3.79,2.49,28.93,23.33,53.73c20.73,24.67,64.62,54.08,155.97,54.08
		c5.43,0,11.05-0.1,16.69-0.31c4.58-0.17,9.14-0.25,13.57-0.25c61.46,0,107.92,15.85,138.11,47.11
		c37.08,38.4,35.82,87.13,35.8,87.62c-0.07,0.61-6.58,64.86,17.53,91.67c7.05,7.84,16.09,11.81,26.87,11.81
		c9.9,0,21.45-3.37,34.33-10.02c12.11-6.25,23.4-9.42,33.55-9.42c31.22,0,47.42,30.11,55.51,55.37
		c8.81,27.49,10.19,55.35,10.21,55.63l0.03,0.62l0.6-0.16c0.61-0.16,60.84-16.42,70.78-54.81c5.63-21.73-5.67-46.3-33.56-73.03
		c-22.93-21.97-31.83-39.9-26.45-53.29c10.38-25.84,71.31-28.63,97.03-28.63c6.78,0,11.6,0.19,13.07,0.26v390.16
		c-5.22,1.75-68.74,22.7-112.89,22.7c-21.33,0-34.9-4.83-40.35-14.37c-5.75-10.08-2.5-25.63,9.67-46.22
		c15.33-25.93,20.59-43.47,15.65-52.13c-2.41-4.22-7.21-6.36-14.27-6.36c-25.7,0-74.58,28.51-75.07,28.8
		c-2.89,2.07-69.91,50.45-64.5,76.92c1.43,7.01,7.87,11.84,19.14,14.34c6.78,1.51,10.51,4.3,11.08,8.3
		c4.14,29.04-148.63,113.62-153.6,116.37L0.5,767.5V0.5z"/>
	<path class="st1" d="M682.06,1c0.38,5.12,3.21,29.51,23.41,53.55c20.8,24.75,64.81,54.26,156.35,54.26c5.44,0,11.06-0.1,16.71-0.31
		c4.57-0.17,9.13-0.25,13.55-0.25c61.31,0,107.65,15.8,137.74,46.95c19.29,19.97,27.96,42.62,31.84,58.11
		c4.11,16.4,3.85,28.44,3.84,29.13c-0.09,0.92-1.67,16.83-0.39,35.68c1.77,26.05,7.84,45.02,18.04,56.37
		c7.15,7.95,16.31,11.98,27.24,11.98c9.98,0,21.61-3.39,34.56-10.08c12.04-6.21,23.25-9.36,33.32-9.36
		c13.61,0,25.5,5.74,35.33,17.06c7.93,9.14,14.56,21.9,19.7,37.95c8.79,27.43,10.18,55.24,10.19,55.51l0.06,1.24l1.2-0.31
		c0.15-0.04,15.41-4.11,31.69-12.86c21.65-11.64,35.3-26.28,39.45-42.31c5.68-21.91-5.66-46.65-33.7-73.52
		c-22.77-21.82-31.63-39.56-26.33-52.74c10.27-25.56,70.95-28.32,96.57-28.32c6.16,0,10.7,0.16,12.57,0.23v389.32
		c-7.16,2.38-69.11,22.56-112.39,22.56c-21.14,0-34.57-4.75-39.91-14.12c-5.65-9.91-2.4-25.29,9.67-45.71
		c15.64-26.47,20.76-43.68,15.66-52.63c-2.5-4.39-7.45-6.61-14.71-6.62c-25.84,0-73.3,27.69-75.31,28.87l-0.04,0.02l-0.04,0.03
		c-2.87,2.05-70.13,50.61-64.66,77.4c1.48,7.23,8.05,12.18,19.52,14.73c6.56,1.46,10.16,4.11,10.7,7.89
		c1.18,8.28-10.86,26.93-74.93,68.75c-37.04,24.18-75.05,45.24-78.31,47.04L1,767V1H682.06 M683,0H0v768l960.5-0.5
		c0,0,204-112,142.5-125.66c-61.5-13.66,45.5-90.34,45.5-90.34s48.95-28.74,74.81-28.73c17.55,0,24.47,13.25-1.81,57.73
		c-28.26,47.83-4.64,61.34,31.11,61.34C1299.07,641.84,1366,619,1366,619V228c0,0-5.29-0.28-13.57-0.28
		c-40.12,0-150.49,6.53-70.93,82.78c96,92-37,127-37,127s-5.19-111.47-66.22-111.47c-9.76,0-20.96,2.86-33.78,9.47
		c-13.53,6.98-24.77,9.96-34.11,9.96c-54.84,0-43.89-102.96-43.89-102.96s4.77-135.25-174.41-135.25c-4.42,0-8.95,0.08-13.59,0.25
		c-5.72,0.21-11.28,0.31-16.68,0.31C685.36,107.81,683,0,683,0L683,0z"/>
</g>
<g id="form">
	<path class="st2" d="M488.05,943.51c-9.37,0-18.9-0.15-28.3-0.44c-77.48-2.41-152.33-14.5-222.48-35.92
		c-67.75-20.69-128.29-49.16-179.92-84.64C5.73,787.05-34.4,746.38-61.92,701.63c-28.47-46.3-42.13-94.97-40.58-144.65
		c2.96-95.14,62.16-183.68,166.67-249.29C168.41,242.26,307,206.22,454.4,206.22c9.37,0,18.9,0.15,28.3,0.44
		c77.48,2.42,152.33,14.5,222.48,35.92c67.75,20.69,128.29,49.16,179.92,84.64c51.62,35.46,91.75,76.13,119.26,120.88
		c28.47,46.3,42.13,94.97,40.58,144.64c-2.96,95.14-62.16,183.68-166.67,249.29C774.04,907.47,635.46,943.51,488.05,943.51z"/>
	<path class="st1" d="M454.44,206.72c9.34,0,18.84,0.15,28.24,0.44c77.43,2.41,152.24,14.49,222.35,35.9
		c67.7,20.67,128.19,49.13,179.79,84.57c51.56,35.43,91.64,76.05,119.12,120.73c28.42,46.22,42.05,94.79,40.5,144.37
		c-1.5,48.09-17.22,94.42-46.73,137.68c-28.53,41.83-68.8,79.24-119.71,111.2c-50.83,31.91-109.92,56.92-175.62,74.33
		c-67.8,17.96-139.91,27.07-214.33,27.07c-9.37,0-18.88-0.15-28.29-0.44c-77.43-2.41-152.24-14.49-222.35-35.9
		C169.72,886,109.23,857.55,57.63,822.1C6.07,786.67-34.01,746.05-61.49,701.37C-89.91,655.15-103.54,606.57-102,557
		c1.5-48.09,17.22-94.42,46.73-137.68c28.53-41.83,68.8-79.24,119.71-111.2c50.83-31.91,109.92-56.92,175.62-74.33
		C307.86,215.83,379.98,206.72,454.44,206.72L454.44,206.72 M454.4,205.72C150.14,205.73-96.84,359.44-103,556.97
		c-6.35,203.63,245.6,376.72,562.73,386.6c9.5,0.3,18.92,0.44,28.32,0.44c304.26,0,551.24-153.72,557.4-351.25
		c6.35-203.63-245.6-376.72-562.73-386.6C473.21,205.86,463.8,205.72,454.4,205.72L454.4,205.72z"/>
</g>
</svg>
