<?xml version="1.0" encoding="utf-8"?>
<!-- Generator: Adobe Illustrator 25.0.0, SVG Export Plug-In . SVG Version: 6.00 Build 0)  -->
<svg version="1.1" id="Layer_1" xmlns="http://www.w3.org/2000/svg" xmlns:xlink="http://www.w3.org/1999/xlink" x="0px" y="0px"
	 viewBox="0 0 1366 768" style="enable-background:new 0 0 1366 768;" xml:space="preserve">
<style type="text/css">
	.st0{fill:url(#SVGID_1_);}
</style>
<linearGradient id="SVGID_1_" gradientUnits="userSpaceOnUse" x1="0" y1="383.75" x2="1366" y2="383.75">
	<stop  offset="0" style="stop-color:#FF7BAC;stop-opacity:0"/>
	<stop  offset="1" style="stop-color:#6600FF"/>
	<stop  offset="1" style="stop-color:#FF7BAC;stop-opacity:0.957"/>
	<stop  offset="1" style="stop-color:#FF7BAC"/>
</linearGradient>
<path class="st0" d="M0,0c0,0,1457.56,66.42,683,766.64l277.5,0.86l78.06-48.05c0,0,85.42-59.89,74.93-68.75
	s-74.96-21.95,0.89-70.97c0,0,71.97-98.38,123.65-51.35c21.65,19.71-16.53,52.12-16.53,52.12s-28.05,62.16,31.11,61.34
	s112.39-33.5,112.39-33.5l1-380.34c0,0-155.34-2.64-95.09,67.83c0,0,154.49,109.72-26.41,141.67c0,0-8.58-77.2-30.9-93.41
	s-34.99-19.56-69.1-8.59s-107.78,60.99-78-93c0,0-0.33-145.63-188-135S683,0,683,0H0z"/>
</svg>
