<?xml version="1.0" encoding="utf-8"?>
<!-- Generator: Adobe Illustrator 25.0.0, SVG Export Plug-In . SVG Version: 6.00 Build 0)  -->
<svg version="1.1" id="Layer_1" xmlns="http://www.w3.org/2000/svg" xmlns:xlink="http://www.w3.org/1999/xlink" x="0px" y="0px"
	 viewBox="0 0 1366 768" style="enable-background:new 0 0 1366 768;" xml:space="preserve">
<style type="text/css">
	.st0{fill:url(#SVGID_1_);}
	.st1{fill:url(#SVGID_2_);}
	.st2{fill:url(#SVGID_3_);}
	.st3{fill:url(#SVGID_4_);}
</style>
<g id="background">
	<linearGradient id="SVGID_1_" gradientUnits="userSpaceOnUse" x1="0" y1="384" x2="1366" y2="384">
		<stop  offset="0.0983" style="stop-color:#FF7BAC;stop-opacity:0"/>
		<stop  offset="1" style="stop-color:#6B04FC;stop-opacity:0.9659"/>
		<stop  offset="1" style="stop-color:#6600FF"/>
		<stop  offset="1" style="stop-color:#FF7BAC;stop-opacity:0.957"/>
		<stop  offset="1" style="stop-color:#FF7BAC"/>
	</linearGradient>
	<path class="st0" d="M1366,228v391c0,0-209.5,71.5-144.5-38.5s-73-29-73-29s-107,76.68-45.5,90.34
		c61.5,13.66-142.5,125.66-142.5,125.66L0,768V0h683c0,0,2.5,114.5,195.5,107.5s188,135,188,135s-15,141,78,93s100,102,100,102
		s133-35,37-127S1366,228,1366,228z"/>
	<linearGradient id="SVGID_2_" gradientUnits="userSpaceOnUse" x1="0" y1="384" x2="1366" y2="384">
		<stop  offset="0" style="stop-color:#FF7BAC;stop-opacity:0"/>
		<stop  offset="1" style="stop-color:#6B04FC;stop-opacity:0.9659"/>
		<stop  offset="1" style="stop-color:#6600FF"/>
		<stop  offset="1" style="stop-color:#FF7BAC;stop-opacity:0.957"/>
		<stop  offset="1" style="stop-color:#FF7BAC"/>
	</linearGradient>
	<path class="st1" d="M682.06,1c0.38,5.12,3.21,29.51,23.41,53.55c20.8,24.75,64.81,54.26,156.35,54.26c5.44,0,11.06-0.1,16.71-0.31
		c4.57-0.17,9.13-0.25,13.55-0.25c61.31,0,107.65,15.8,137.74,46.95c19.29,19.97,27.96,42.62,31.84,58.11
		c4.11,16.4,3.85,28.44,3.84,29.13c-0.09,0.92-1.67,16.83-0.39,35.68c1.77,26.05,7.84,45.02,18.04,56.37
		c7.15,7.95,16.31,11.98,27.24,11.98c9.98,0,21.61-3.39,34.56-10.08c12.04-6.21,23.25-9.36,33.32-9.36
		c13.61,0,25.5,5.74,35.33,17.06c7.93,9.14,14.56,21.9,19.7,37.95c8.79,27.43,10.18,55.24,10.19,55.51l0.06,1.24l1.2-0.31
		c0.15-0.04,15.41-4.11,31.69-12.86c21.65-11.64,35.3-26.28,39.45-42.31c5.68-21.91-5.66-46.65-33.7-73.52
		c-22.77-21.82-31.63-39.56-26.33-52.74c10.27-25.56,70.95-28.32,96.57-28.32c6.16,0,10.7,0.16,12.57,0.23v389.32
		c-7.16,2.38-69.11,22.56-112.39,22.56c-21.14,0-34.57-4.75-39.91-14.12c-5.65-9.91-2.4-25.29,9.67-45.71
		c15.64-26.47,20.76-43.68,15.66-52.63c-2.5-4.39-7.45-6.61-14.71-6.62c-25.84,0-73.3,27.69-75.31,28.87l-0.04,0.02l-0.04,0.03
		c-2.87,2.05-70.13,50.61-64.66,77.4c1.48,7.23,8.05,12.18,19.52,14.73c6.56,1.46,10.16,4.11,10.7,7.89
		c1.18,8.28-10.86,26.93-74.93,68.75c-37.04,24.18-75.05,45.24-78.31,47.04L1,767V1H682.06 M683,0H0v768l960.5-0.5
		c0,0,204-112,142.5-125.66c-61.5-13.66,45.5-90.34,45.5-90.34s48.95-28.74,74.81-28.73c17.55,0,24.47,13.25-1.81,57.73
		c-28.26,47.83-4.64,61.34,31.11,61.34C1299.07,641.84,1366,619,1366,619V228c0,0-5.29-0.28-13.57-0.28
		c-40.12,0-150.49,6.53-70.93,82.78c96,92-37,127-37,127s-5.19-111.47-66.22-111.47c-9.76,0-20.96,2.86-33.78,9.47
		c-13.53,6.98-24.77,9.96-34.11,9.96c-54.84,0-43.89-102.96-43.89-102.96s4.77-135.25-174.41-135.25c-4.42,0-8.95,0.08-13.59,0.25
		c-5.72,0.21-11.28,0.31-16.68,0.31C685.36,107.81,683,0,683,0L683,0z"/>
</g>
<g id="form">
	
		<linearGradient id="SVGID_3_" gradientUnits="userSpaceOnUse" x1="459.3436" y1="410.7496" x2="-97.6564" y2="450.7496" gradientTransform="matrix(0.514 -0.0324 0.016 1.0408 -53.4002 -6.304)">
		<stop  offset="0.0983" style="stop-color:#FF7BAC;stop-opacity:0"/>
		<stop  offset="1" style="stop-color:#6B04FC;stop-opacity:0.9659"/>
		<stop  offset="1" style="stop-color:#6600FF"/>
		<stop  offset="1" style="stop-color:#FF7BAC;stop-opacity:0.957"/>
		<stop  offset="1" style="stop-color:#FF7BAC"/>
	</linearGradient>
	<ellipse class="st2" cx="295.45" cy="384.11" rx="295.45" ry="384.11"/>
	<linearGradient id="SVGID_4_" gradientUnits="userSpaceOnUse" x1="0.1658" y1="402.7425" x2="590.7272" y2="365.4766">
		<stop  offset="0" style="stop-color:#FF7BAC;stop-opacity:0"/>
		<stop  offset="1" style="stop-color:#6B04FC;stop-opacity:0.9659"/>
		<stop  offset="1" style="stop-color:#6600FF"/>
		<stop  offset="1" style="stop-color:#FF7BAC;stop-opacity:0.957"/>
		<stop  offset="1" style="stop-color:#FF7BAC"/>
	</linearGradient>
	<path class="st3" d="M295.45,1c39.71,0,78.24,10.11,114.52,30.06c35.06,19.28,66.55,46.89,93.6,82.05
		c27.06,35.19,48.31,76.16,63.16,121.79c15.37,47.25,23.17,97.45,23.17,149.2c0,51.75-7.8,101.95-23.17,149.2
		c-14.85,45.63-36.09,86.61-63.16,121.79c-27.05,35.17-58.54,62.77-93.6,82.05c-36.27,19.95-74.8,30.06-114.52,30.06
		s-78.24-10.11-114.52-30.06c-35.06-19.28-66.55-46.89-93.6-82.05c-27.06-35.19-48.31-76.16-63.16-121.79
		C8.79,486.06,1,435.86,1,384.11c0-51.75,7.8-101.95,23.17-149.2c14.85-45.63,36.09-86.61,63.16-121.79
		c27.05-35.17,58.54-62.77,93.6-82.05C217.2,11.11,255.73,1,295.45,1 M295.45,0C132.28,0,0,171.97,0,384.11
		s132.28,384.11,295.45,384.11s295.45-171.97,295.45-384.11S458.62,0,295.45,0L295.45,0z"/>
</g>
</svg>
